<svg width="766" height="505" viewBox="0 0 766 505" fill="none" xmlns="http://www.w3.org/2000/svg">
<path d="M19 62C19 39.9086 36.9086 22 59 22H204.75H390.5H576.25H722C744.091 22 762 39.9086 762 62V378C762 433.228 717.228 478 662 478H617.333C590.44 478 564.041 470.77 540.901 457.066L492.41 428.35C429.566 391.135 351.434 391.135 288.59 428.35L240.099 457.066C216.959 470.77 190.56 478 163.667 478H119C63.7715 478 19 433.228 19 378V62Z" fill="#1C1C1C" fill-opacity="0.8"/>
<g style="mix-blend-mode:darken">
<path d="M0 20.0233C0 8.96848 8.97079 0.0171009 20.0256 0.0311555C27.2998 0.0404038 33.5161 0.0384594 39 0C50.0457 0 59 8.40608 59 18.7755V26C59 37.0457 50.0457 46 39 46H20C8.95431 46 0 37.5939 0 27.2245V20.0233Z" fill="#F59F3C"/>
<path d="M0 20.0233C0 8.96848 8.97079 0.0171009 20.0256 0.0311555C27.2998 0.0404038 33.5161 0.0384594 39 0C50.0457 0 59 8.40608 59 18.7755V26C59 37.0457 50.0457 46 39 46H20C8.95431 46 0 37.5939 0 27.2245V20.0233Z" fill="#F59F3C"/>
</g>
<g style="mix-blend-mode:darken" filter="url(#filter0_d_146_3)">
<path d="M703 2.5C719.703 2.52067 732.055 2.57429 742 2.5C753.046 2.5 762 11.4543 762 22.5V51.5H723C711.954 51.5 703 42.5457 703 31.5V2.5Z" fill="#5147C5"/>
<path d="M703 2.5C719.703 2.52067 732.055 2.57429 742 2.5C753.046 2.5 762 11.4543 762 22.5V51.5H723C711.954 51.5 703 42.5457 703 31.5V2.5Z" fill="#5147C5"/>
</g>
<g style="mix-blend-mode:darken" filter="url(#filter1_d_146_3)">
<path d="M53 448C69.7027 448.021 82.0555 448.074 92 448C103.046 448 112 456.954 112 468V497H73C61.9543 497 53 488.046 53 477V448Z" fill="#056D23" fill-opacity="0.49" shape-rendering="crispEdges"/>
<path d="M53 448C69.7027 448.021 82.0555 448.074 92 448C103.046 448 112 456.954 112 468V497H73C61.9543 497 53 488.046 53 477V448Z" fill="#056D23" fill-opacity="0.49" shape-rendering="crispEdges"/>
</g>
<path d="M684.5 462.472C684.5 451.417 693.471 442.466 704.526 442.48C711.8 442.489 718.016 442.487 723.5 442.449C734.546 442.449 743.5 450.855 743.5 461.224V468.449C743.5 479.495 734.546 488.449 723.5 488.449H704.5C693.454 488.449 684.5 480.043 684.5 469.673V462.472Z" fill="#F59F3C"/>
<path d="M684.5 462.472C684.5 451.417 693.471 442.466 704.526 442.48C711.8 442.489 718.016 442.487 723.5 442.449C734.546 442.449 743.5 450.855 743.5 461.224V468.449C743.5 479.495 734.546 488.449 723.5 488.449H704.5C693.454 488.449 684.5 480.043 684.5 469.673V462.472Z" fill="#3C70F5"/>
<defs>
<filter id="filter0_d_146_3" x="699" y="2.5" width="67" height="57" filterUnits="userSpaceOnUse" color-interpolation-filters="sRGB">
<feFlood flood-opacity="0" result="BackgroundImageFix"/>
<feColorMatrix in="SourceAlpha" type="matrix" values="0 0 0 0 0 0 0 0 0 0 0 0 0 0 0 0 0 0 127 0" result="hardAlpha"/>
<feOffset dy="4"/>
<feGaussianBlur stdDeviation="2"/>
<feComposite in2="hardAlpha" operator="out"/>
<feColorMatrix type="matrix" values="0 0 0 0 0 0 0 0 0 0 0 0 0 0 0 0 0 0 0.25 0"/>
<feBlend mode="normal" in2="BackgroundImageFix" result="effect1_dropShadow_146_3"/>
<feBlend mode="normal" in="SourceGraphic" in2="effect1_dropShadow_146_3" result="shape"/>
</filter>
<filter id="filter1_d_146_3" x="49" y="448" width="67" height="57" filterUnits="userSpaceOnUse" color-interpolation-filters="sRGB">
<feFlood flood-opacity="0" result="BackgroundImageFix"/>
<feColorMatrix in="SourceAlpha" type="matrix" values="0 0 0 0 0 0 0 0 0 0 0 0 0 0 0 0 0 0 127 0" result="hardAlpha"/>
<feOffset dy="4"/>
<feGaussianBlur stdDeviation="2"/>
<feComposite in2="hardAlpha" operator="out"/>
<feColorMatrix type="matrix" values="0 0 0 0 0 0 0 0 0 0 0 0 0 0 0 0 0 0 0.25 0"/>
<feBlend mode="normal" in2="BackgroundImageFix" result="effect1_dropShadow_146_3"/>
<feBlend mode="normal" in="SourceGraphic" in2="effect1_dropShadow_146_3" result="shape"/>
</filter>
</defs>
</svg>
