<svg width="100" height="100" viewBox="0 0 100 100" fill="none" xmlns="http://www.w3.org/2000/svg">
<path d="M85.1375 36.1125C81.4343 37.9234 77.3453 38.0219 74.3765 35.9875C72.9 34.975 71.8937 33.5563 71.3421 31.9203C69.6671 37.1141 66.1515 40.625 61.9796 40.625C56.1375 40.625 51.5625 33.7625 51.5625 25C51.5625 23.9047 51.6343 22.8391 51.7703 21.8109C48.889 20.5766 43.9 18.75 39.5828 18.75C31.25 18.75 14.5828 23.9109 14.5828 58.3328H20.8328C21.8359 51.0578 26.6531 44.2859 28.9109 43.7969C27.9781 45.1297 27.0828 47.3578 27.0828 51.0406C27.0828 52.6031 27.9015 54.9469 29.0375 56.2484H33.3328C32.589 55.4688 31.25 54.1672 31.25 52.0828C31.25 48.9578 33.7703 47.5469 33.8546 47.4969C33.9218 47.4578 33.9734 47.4016 34.0375 47.3578C36.6937 48.6203 40.6343 49.7594 46.2562 49.9547C46.9593 52.8203 48.6281 56.6359 51.7546 59.1375C51.8093 59.0078 53.3062 56.4625 54.025 55.3297C53.0125 53.8875 52.5 51.7219 52.2625 49.9047C61.2187 49.4969 64.5812 47.9172 64.5812 47.9172C65.6234 48.9594 67.7062 50 70.8312 50C79.164 50 87.5 43.75 87.5 41.6672C87.5 40.5344 86.6359 38.3469 85.1375 36.1125Z" fill="url(#paint0_linear_54_44)"/>
<path d="M37.5 59.6359L35.4172 56.25C37.5 53.6453 37.5 49.2937 37.5 47.9172H44.011C44.011 50.2609 41.4672 56.3297 37.5 59.6359ZM58.336 59.1141C57.6922 59.1141 57.0563 58.8156 56.6485 58.2562L54.5657 55.3922C53.8891 54.4625 54.0954 53.1594 55.0235 52.4844C55.9532 51.8078 57.2563 52.0109 57.9344 52.9453L60.0172 55.8094C60.6938 56.739 60.4876 58.0422 59.5594 58.7172C59.1891 58.9859 58.761 59.1141 58.336 59.1141ZM64.3235 44.7922H56.7719C56.7719 50.7812 66.0157 55.6719 66.6672 56.25L71.2594 54.7C69.4579 53.1 64.8422 50 64.3235 44.7922Z" fill="url(#paint1_linear_54_44)"/>
<path d="M35.4173 89.5828C27.6798 89.5828 14.5845 83.0016 14.5845 58.3328H20.8345C20.6392 60.5828 20.8017 62.6625 20.8345 64.5828C21.0954 80.4688 29.897 85.4156 35.4173 85.4156C43.6564 85.4172 43.7501 79.1734 43.7501 78.9063C43.7501 73.6938 40.6501 72.9172 38.8017 72.9172C35.5095 72.9172 35.4157 75.2547 35.4157 75.5219C35.4157 76.2344 35.6407 77.0844 36.7173 77.0844C37.1595 77.0844 37.4095 76.9594 37.5095 76.8781C37.6126 75.825 38.5017 75 39.5829 75C40.7329 75 41.6657 75.9313 41.6657 77.0828C41.6657 79.1313 39.8157 81.25 36.7173 81.25C33.5485 81.25 31.2485 78.8422 31.2485 75.5203C31.2501 72.1563 33.8439 68.75 38.8017 68.75C43.0064 68.75 47.9157 71.4078 47.9157 78.9063C47.9173 83.2 44.5876 89.5828 35.4173 89.5828Z" fill="url(#paint2_linear_54_44)"/>
<path d="M95.7001 21.4484C95.2563 18.4922 93.7251 15.9797 91.3829 14.375V14.3703C85.9345 10.6375 77.4032 12.739 72.3751 19.0578C72.1767 19.3078 72.0032 19.5672 71.8204 19.8234C72.1876 21.4391 72.3954 23.1734 72.3954 24.9984C72.3954 28.6312 71.6001 31.925 70.2642 34.5516C71.0032 35.8 71.9907 36.8734 73.2001 37.7031C75.0313 38.9609 77.2079 39.5578 79.4829 39.5578C83.9845 39.5578 88.8688 37.2203 92.2095 33.0219C95.0048 29.5109 96.2751 25.2922 95.7001 21.4484ZM88.9485 30.4266C85.2532 35.0719 79.2423 36.7969 75.5563 34.2687C73.7923 33.0625 73.1954 31.2891 73.0048 30.0187C72.6001 27.3141 73.5595 24.2641 75.636 21.6547C78.1751 18.4609 81.811 16.6469 85.0313 16.6469C86.4954 16.6469 87.8751 17.0219 89.0267 17.8094C90.7907 19.0203 91.3876 20.7906 91.5782 22.0641C91.9829 24.7687 91.0251 27.8172 88.9485 30.4266Z" fill="url(#paint3_linear_54_44)"/>
<path d="M87.5 22.9172C86.35 22.9172 85.4172 23.85 85.4172 25C85.4172 26.15 86.35 27.0828 87.5 27.0828C88.65 27.0828 89.5829 26.15 89.5829 25C89.5829 23.85 88.65 22.9172 87.5 22.9172Z" fill="url(#paint4_linear_54_44)"/>
<path d="M99.0188 59.4063L91.6672 57.9266L83.3328 56.25H12.5H8.33281H6.25H4.16719C1.86406 56.25 0 58.1141 0 60.4172C0 62.7203 1.86406 64.5844 4.16719 64.5844H6.25H8.33281H12.5H81.25L91.6672 62.7344L99.0188 61.4281C100.327 61.1641 100.327 59.6688 99.0188 59.4063Z" fill="url(#paint5_linear_54_44)"/>
<path d="M62.5 41.6672C55.4922 41.6672 50 33.8906 50 23.9594C50 14.0281 55.4922 6.25 62.5 6.25C69.5078 6.25 75 14.0266 75 23.9578C75 33.8891 69.5078 41.6672 62.5 41.6672ZM62.5 10.4172C57.9828 10.4172 54.1672 16.6187 54.1672 23.9594C54.1672 31.3 57.9828 37.5 62.5 37.5C67.0172 37.5 70.8328 31.2984 70.8328 23.9578C70.8328 16.6172 67.0172 10.4172 62.5 10.4172Z" fill="url(#paint6_linear_54_44)"/>
<path d="M59.375 22.9172C57.6484 22.9172 56.25 24.3156 56.25 26.0422C56.25 27.7687 57.6484 29.1672 59.375 29.1672C61.1016 29.1672 62.5 27.7687 62.5 26.0422C62.5 24.3156 61.1016 22.9172 59.375 22.9172Z" fill="url(#paint7_linear_54_44)"/>
<path d="M31.2453 66.6672C30.9328 66.6672 30.6156 66.5969 30.3187 66.4485C30.1016 66.3391 25 63.725 25 58.3328C25 55.2266 27.1453 52.0828 31.25 52.0828V56.25C29.4375 56.25 29.1672 57.5563 29.1672 58.3328C29.1672 61.1281 32.1625 62.7094 32.1937 62.725C33.2109 63.25 33.6203 64.5047 33.1 65.5235C32.7328 66.2485 32.0016 66.6672 31.2453 66.6672Z" fill="url(#paint8_linear_54_44)"/>
<path d="M54.1673 66.6672C53.6345 66.6672 53.1001 66.4625 52.6923 66.0563C51.2657 64.6266 49.7407 62.0547 49.7407 59.1141C49.7407 55.1063 52.5392 52.0828 56.2517 52.0828C57.4017 52.0828 58.3345 53.0141 58.3345 54.1656C58.3329 55.3188 57.4001 56.25 56.2501 56.25C55.0829 56.25 53.9063 57.1359 53.9063 59.1141C53.9063 60.8969 54.9954 62.4656 55.6392 63.1094C56.4517 63.9234 56.4517 65.2422 55.6376 66.0547C55.2314 66.4625 54.6985 66.6672 54.1673 66.6672ZM71.8751 64.5828C71.0938 64.5828 70.6142 63.6469 70.5751 63.5766C70.2204 62.9328 69.536 62.5 68.7501 62.5C67.6001 62.5 66.6673 63.4313 66.6673 64.5828C66.6673 66.2578 68.0548 68.75 71.8751 68.75C74.911 68.75 76.511 66.3813 76.9767 64.9813C77.0204 64.8485 77.0095 64.7172 77.0267 64.5828H71.8751ZM77.0251 56.25C77.0079 56.1172 77.0204 55.9828 76.9751 55.8516C76.511 54.4516 74.911 52.0828 71.8751 52.0828C68.0548 52.0828 66.6673 54.575 66.6673 56.25C66.6673 57.4016 67.6001 58.3328 68.7501 58.3328C69.536 58.3328 70.2188 57.9 70.5751 57.2563C70.6142 57.186 71.0938 56.25 71.8751 56.25H77.0251Z" fill="url(#paint9_linear_54_44)"/>
<defs>
<linearGradient id="paint0_linear_54_44" x1="51.0421" y1="18.9031" x2="51.0421" y2="76.3406" gradientUnits="userSpaceOnUse">
<stop stop-color="#9C99BF"/>
<stop offset="1" stop-color="#5147C5"/>
</linearGradient>
<linearGradient id="paint1_linear_54_44" x1="53.3376" y1="18.9031" x2="53.3376" y2="76.3406" gradientUnits="userSpaceOnUse">
<stop stop-color="#857ED6"/>
<stop offset="1" stop-color="#5147C5"/>
</linearGradient>
<linearGradient id="paint2_linear_54_44" x1="31.2501" y1="18.9031" x2="31.2501" y2="76.3406" gradientUnits="userSpaceOnUse">
<stop stop-color="#857ED6"/>
<stop offset="1" stop-color="#665CD7"/>
</linearGradient>
<linearGradient id="paint3_linear_54_44" x1="84.1985" y1="7.71092" x2="82.3751" y2="41.6656" gradientUnits="userSpaceOnUse">
<stop stop-color="#857ED6"/>
<stop offset="1" stop-color="#5147C5"/>
</linearGradient>
<linearGradient id="paint4_linear_54_44" x1="88.4157" y1="7.93748" x2="86.5922" y2="41.8922" gradientUnits="userSpaceOnUse">
<stop stop-color="#5147C5"/>
<stop offset="1" stop-color="#5147C5"/>
</linearGradient>
<linearGradient id="paint5_linear_54_44" x1="50" y1="52.6375" x2="50" y2="66.0172" gradientUnits="userSpaceOnUse">
<stop stop-color="#A19DCB"/>
<stop offset="1" stop-color="#383096"/>
</linearGradient>
<linearGradient id="paint6_linear_54_44" x1="63.4328" y1="6.59687" x2="61.6094" y2="40.5516" gradientUnits="userSpaceOnUse">
<stop stop-color="#857ED6"/>
<stop offset="1" stop-color="#5147C5"/>
</linearGradient>
<linearGradient id="paint7_linear_54_44" x1="60.4281" y1="6.43593" x2="58.6047" y2="40.3891" gradientUnits="userSpaceOnUse">
<stop stop-color="#5147C5"/>
<stop offset="1" stop-color="#5147C5"/>
</linearGradient>
<linearGradient id="paint8_linear_54_44" x1="29.1625" y1="18.9031" x2="29.1625" y2="76.3406" gradientUnits="userSpaceOnUse">
<stop stop-color="#857ED6"/>
<stop offset="1" stop-color="#5147C5"/>
</linearGradient>
<linearGradient id="paint9_linear_54_44" x1="63.3829" y1="18.9031" x2="63.3829" y2="76.3406" gradientUnits="userSpaceOnUse">
<stop stop-color="#857ED6"/>
<stop offset="1" stop-color="#5147C5"/>
</linearGradient>
</defs>
</svg>
