<svg width="40" height="40" viewBox="0 0 40 40" fill="none" xmlns="http://www.w3.org/2000/svg">
<path d="M28.3333 35H11.6667C7.99083 35 5 32.0092 5 28.3333V11.6667C5 7.99083 7.99083 5 11.6667 5H28.3333C32.0092 5 35 7.99083 35 11.6667V28.3333C35 32.0092 32.0092 35 28.3333 35Z" fill="#5147C5"/>
<path d="M29.9383 14.5733L24.5117 20L29.9375 25.4258C29.9742 25.2891 30 25.1483 30 25V15C30 14.8516 29.9742 14.7108 29.9383 14.5733ZM22.24 19.9158L28.76 13.395C28.6225 13.3591 28.4817 13.3333 28.3333 13.3333H11.6667C11.5183 13.3333 11.3775 13.3591 11.24 13.395L17.76 19.9158C18.9958 21.15 21.0042 21.15 22.24 19.9158ZM20 22.5075C18.8 22.5075 17.6058 22.0558 16.675 21.17L11.24 26.605C11.3775 26.6408 11.5183 26.6666 11.6667 26.6666H28.3333C28.4817 26.6666 28.6225 26.6408 28.76 26.605L23.325 21.17C22.3942 22.0558 21.2 22.5075 20 22.5075ZM10.0617 14.5733C10.0258 14.7108 10 14.8516 10 15V25C10 25.1483 10.0258 25.2891 10.0617 25.4266L15.4883 20L10.0617 14.5733Z" fill="white"/>
</svg>
