<svg width="135" height="24" viewBox="0 0 135 24" fill="none" xmlns="http://www.w3.org/2000/svg">
<path d="M123 0.587006L126.668 8.15501L135 9.30601L128.936 15.134L130.416 23.413L123 19.446L115.583 23.413L117.064 15.134L111 9.30601L119.332 8.15501L123 0.587006Z" fill="#272D2D"/>
<path d="M96 0.587006L99.668 8.15501L108 9.30601L101.936 15.134L103.416 23.413L96 19.446L88.583 23.413L90.064 15.134L84 9.30601L92.332 8.15501L96 0.587006Z" fill="#5147C5"/>
<path d="M68 0.587006L71.668 8.15501L80 9.30601L73.936 15.134L75.416 23.413L68 19.446L60.583 23.413L62.064 15.134L56 9.30601L64.332 8.15501L68 0.587006Z" fill="#5147C5"/>
<path d="M40 0.587006L43.668 8.15501L52 9.30601L45.936 15.134L47.416 23.413L40 19.446L32.583 23.413L34.064 15.134L28 9.30601L36.332 8.15501L40 0.587006Z" fill="#5147C5"/>
<path d="M12 0.587006L15.668 8.15501L24 9.30601L17.936 15.134L19.416 23.413L12 19.446L4.583 23.413L6.064 15.134L0 9.30601L8.332 8.15501L12 0.587006Z" fill="#5147C5"/>
</svg>
