<svg width="35" height="35" viewBox="0 0 35 35" fill="none" xmlns="http://www.w3.org/2000/svg">
<path d="M21.875 23.3328V20.4161C22.5312 20.0908 24.4081 17.8566 24.605 16.1109C25.1213 16.0715 25.9321 15.5975 26.1712 13.7264C26.2996 12.7216 25.7892 12.1572 25.48 11.9792C25.48 11.9792 26.25 10.5165 26.25 8.75037C26.25 5.20938 24.8602 2.18759 21.875 2.18759C21.875 2.18759 20.8381 0 17.5 0C11.3138 0 8.75 3.96829 8.75 8.75037C8.75 10.3604 9.52 11.9792 9.52 11.9792C9.21083 12.1572 8.70042 12.723 8.82875 13.7264C9.06792 15.5975 9.87875 16.0715 10.395 16.1109C10.5919 17.8566 12.4688 20.0908 13.125 20.4161V23.3328C11.6667 27.708 0 24.7912 0 35H35C35 24.7912 23.3333 27.708 21.875 23.3328Z" fill="#5147C5"/>
</svg>
